<svg xmlns="http://www.w3.org/2000/svg" xmlns:xlink="http://www.w3.org/1999/xlink" version="1.1" id="Layer_1" x="0px" y="0px" width="100%" viewBox="0 0 1024 672" enable-background="new 0 0 1024 672" xml:space="preserve">
<path fill="#ffffff" opacity="1.000000" stroke="none" d=" M605.510071,316.617432   C601.975586,317.739685 598.819031,318.732056 595.662476,319.724426   C595.660950,320.047638 595.659485,320.370819 595.657959,320.694031   C597.699280,320.694031 599.740662,320.694183 601.781982,320.694000   C642.599670,320.690491 683.417664,320.745941 724.234802,320.597778   C728.605835,320.581879 731.130127,321.293579 731.242920,326.318970   C731.341309,330.705200 734.063721,334.088470 737.075439,337.040649   C744.092102,343.918671 751.142273,350.765656 758.318848,357.475586   C761.067200,360.045288 762.395386,362.871796 762.362610,366.681519   C762.239502,381.008301 762.210632,395.337891 762.353455,409.664337   C762.467834,421.143036 763.065552,432.617950 763.116943,444.096039   C763.181702,458.546570 757.191528,464.318970 742.723938,464.319550   C684.079651,464.321838 625.435425,464.335083 566.791138,464.334717   C554.421753,464.334625 548.917908,458.814728 548.904907,446.245209   C548.869385,411.758423 548.866333,377.271515 548.922729,342.784790   C548.929077,338.889923 548.452942,335.252594 546.702637,331.682220   C543.858765,325.880951 544.201721,319.883118 547.565857,314.497528   C549.309570,311.705994 549.125244,309.330750 548.426086,306.532928   C547.179260,301.543610 545.103699,296.777618 544.625488,291.575623   C544.181030,286.741699 546.114319,283.676819 550.656982,281.925568   C560.926575,277.966339 571.609131,275.349670 582.086060,272.069733   C638.291931,254.473480 694.960876,238.377747 750.920227,219.979965   C759.678894,217.100388 763.081543,218.973877 765.605652,227.765213   C768.220398,236.872330 770.982056,245.938675 773.484680,255.076218   C775.654358,262.998199 774.027161,265.991913 766.022217,268.396729   C737.342957,277.012299 708.608887,285.445343 679.925781,294.048157   C655.225098,301.456604 630.565674,309.002472 605.510071,316.617432  M608.985352,303.535065   C610.071899,302.893188 610.488770,301.853790 610.816406,300.692474   C613.026123,292.859863 615.313660,285.048889 617.467285,277.201111   C617.785767,276.040802 618.540771,274.668579 616.840759,272.989532   C608.094360,275.545563 599.038696,278.174255 589.998596,280.855286   C588.818604,281.205261 588.024048,282.195343 587.709656,283.343781   C585.223145,292.426636 582.793640,301.525085 579.840637,312.499054   C590.305115,309.669739 599.347351,306.947998 608.985352,303.535065  M680.632507,253.639572   C673.322144,255.797302 666.020447,257.984772 658.697510,260.098969   C655.503296,261.021149 653.867432,262.947296 653.098083,266.293549   C651.726257,272.260742 649.794067,278.098480 648.119690,283.997009   C647.466187,286.299255 646.280029,288.531799 646.918640,291.856354   C655.820007,289.367981 664.388062,287.004639 672.933105,284.560577   C674.952515,283.983002 675.456726,282.162537 675.964111,280.342712   C678.011475,272.998413 680.173462,265.685822 682.191956,258.333771   C682.632935,256.727631 683.726440,254.786530 680.632507,253.639572  M716.398621,251.775391   C714.668823,258.041260 712.939087,264.307129 710.952087,271.504608   C720.694214,269.321930 729.091919,267.480743 737.175415,264.413300   C738.476013,263.919800 739.559814,263.153870 739.903992,261.727051   C742.063538,252.772781 744.197876,243.812424 746.487183,234.241318   C739.399780,235.338684 733.808838,238.152115 727.833008,239.288879   C721.067078,240.575928 717.257874,244.127625 716.398621,251.775391  M573.381836,328.820862   C576.560730,322.314575 575.041809,317.072113 569.353821,314.918030   C564.551453,313.099365 559.511658,315.958557 557.835266,321.428223   C556.553467,325.610779 558.481873,328.630798 561.679871,330.796143   C565.667542,333.496094 569.520935,332.666687 573.381836,328.820862  M732.653015,358.460754   C727.324341,360.332947 725.230652,363.481415 726.370544,367.908386   C727.312744,371.567474 730.964294,373.650665 734.916504,372.623535   C738.319275,371.739288 740.511230,369.371582 740.488159,365.921509   C740.458740,361.525421 737.724060,359.079865 732.653015,358.460754  M706.408508,400.802704   C707.943970,404.473694 710.590332,406.484497 714.610229,405.443176   C717.917053,404.586609 720.281677,402.133728 720.389832,398.733398   C720.490173,395.578491 718.467957,393.171143 715.402649,391.954102   C710.441284,389.984222 706.427002,393.542877 706.408508,400.802704  M739.427795,438.198334   C743.074097,439.363342 746.096008,438.451355 747.917297,435.066803   C749.433716,432.248749 749.391785,429.293457 747.041565,426.772400   C744.096191,423.612762 739.890320,423.628082 736.952881,426.751160   C733.910278,429.986053 734.585938,434.121704 739.427795,438.198334  M750.680298,397.266724   C753.542542,394.877014 753.796082,392.163666 750.968506,389.786713   C748.280945,387.527435 746.105652,389.206360 744.351868,391.511414   C743.480042,392.657257 743.322693,393.831238 744.109436,395.158844   C745.486511,397.482605 747.469971,398.135742 750.680298,397.266724  z"/>
<path fill="#ffffff" opacity="1.000000" stroke="none" d=" M868.133789,284.175507   C849.974182,298.015198 832.055603,311.587128 814.290405,325.356995   C810.513062,328.284760 807.383545,328.584808 803.654602,325.480682   C793.024048,316.631317 782.950439,307.171814 772.833740,297.756561   C769.338562,294.503784 770.619324,291.302429 772.834167,287.963928   C785.170166,269.369598 797.445068,250.734756 809.753296,232.122009   C813.058472,227.123795 816.153748,221.960129 819.790344,217.213348   C826.639221,208.273651 837.062134,206.148758 846.226746,212.662125   C859.974609,222.432861 872.395508,233.865036 882.587280,247.373169   C889.919373,257.091125 888.716919,266.674011 879.778381,274.997314   C876.259155,278.274292 872.227722,281.001068 868.133789,284.175507  z"/>
<path fill="#ffffff" opacity="1.000000" stroke="none" d=" M458.395203,300.404907   C454.494995,300.103851 453.236176,301.678223 453.302917,305.113098   C453.461456,313.270538 453.369965,321.433289 453.341370,329.593781   C453.317535,336.394562 452.417023,337.257385 445.442017,337.300171   C442.111298,337.320618 438.780365,337.302948 435.449524,337.304077   C423.678497,337.308167 423.678802,337.308441 423.679840,325.274780   C423.681763,303.291199 423.683380,281.307617 423.684784,259.324036   C423.685425,249.498047 423.871765,239.666992 423.605164,229.848251   C423.475464,225.072205 425.203400,222.386505 429.985748,222.356216   C448.597229,222.238297 467.300934,220.409409 485.771851,223.744843   C504.015533,227.039230 514.757629,241.183868 515.470215,259.811218   C516.428528,284.864868 499.722137,300.629089 474.834686,300.403107   C469.505768,300.354706 464.175995,300.399811 458.395203,300.404907  M479.556030,273.167908   C484.979980,269.610596 485.600861,264.240234 484.537903,258.616058   C483.540771,253.340195 479.664948,250.570801 474.645813,249.258453   C468.427979,247.632690 462.118652,248.554108 455.844574,248.590790   C453.683167,248.603424 453.131104,250.143799 453.135468,252.001511   C453.151459,258.803345 453.166321,265.605194 453.189270,272.407013   C453.195557,274.272583 453.845520,275.873199 455.938446,275.818329   C463.648010,275.616241 471.546631,277.201202 479.556030,273.167908  z"/>
<path fill="#ffffff" opacity="1.000000" stroke="none" d=" M324.747650,356.105377   C329.683533,365.453735 332.385284,375.274506 335.850830,384.792694   C344.561981,408.718414 353.030975,432.732269 361.601440,456.709198   C364.001160,463.422668 363.413391,464.306854 356.403778,464.331940   C351.072083,464.351013 345.736206,464.201080 340.409760,464.367950   C336.365417,464.494659 333.654877,463.084778 332.565735,459.022705   C332.265411,457.902618 331.751526,456.840179 331.342255,455.748840   C326.697845,443.364410 330.193848,445.464417 316.130585,445.262329   C308.800873,445.156982 301.465149,445.365631 294.138733,445.177246   C290.969513,445.095734 289.017426,446.062317 288.410004,449.267944   C288.317688,449.755249 288.121155,450.223389 287.966278,450.698242   C282.765533,466.646515 285.170593,464.113190 268.743347,464.333191   C265.911407,464.371124 263.077087,464.382690 260.246216,464.312286   C255.226227,464.187408 254.165863,462.946075 255.729263,458.151154   C258.669830,449.132538 261.867615,440.197174 265.003571,431.242981   C273.201172,407.835846 281.527283,384.472839 289.552643,361.006927   C291.280487,355.954834 294.068359,353.671753 299.401123,353.888214   C305.389526,354.131256 311.395386,353.938873 317.393646,353.945038   C319.914886,353.947632 322.410309,354.070679 324.747650,356.105377  M316.679169,410.678680   C314.130463,403.526489 311.581757,396.374329 309.033081,389.222137   C304.873627,398.558472 301.971924,407.687103 298.990723,416.789642   C297.975006,419.890869 299.489441,420.682709 302.164764,420.669159   C304.985016,420.654846 307.805450,420.678986 310.625824,420.680695   C320.221680,420.686462 320.221680,420.685516 316.679169,410.678680  z"/>
<path fill="#ffffff" opacity="1.000000" stroke="none" d=" M253.382507,257.560364   C248.151443,261.188141 244.278336,260.520111 240.118515,255.891708   C233.524902,248.555374 224.696335,246.433899 215.065491,247.382492   C205.915771,248.283691 197.747238,255.984573 195.483994,266.299133   C193.497055,275.354614 193.456833,284.574158 195.691559,293.555908   C199.803757,310.083588 219.337631,318.011047 234.023407,309.319336   C236.446091,307.885498 238.883270,306.274719 240.828217,304.273773   C246.128738,298.820648 246.347321,298.342987 254.584656,302.608978   C257.247650,303.988098 259.955750,305.280151 262.616516,306.663483   C268.091553,309.509888 268.461609,311.063751 264.976135,316.353119   C258.992462,325.433655 250.860748,331.897186 240.607468,335.377930   C225.925232,340.362335 210.975037,340.441101 196.571426,334.857117   C178.038940,327.672394 166.809586,313.615936 163.605713,294.090393   C161.068161,278.625610 161.687012,263.217621 169.807602,248.960327   C182.281586,227.059799 205.279266,218.575073 227.895157,221.160751   C239.103638,222.442245 249.257599,225.966034 257.862152,233.484634   C261.554596,236.711060 264.467133,240.519989 266.827332,244.769089   C268.609924,247.978317 267.966766,250.420868 264.457214,252.042297   C260.829773,253.718201 257.294800,255.594147 253.382507,257.560364  z"/>
<path fill="#ffffff" opacity="1.000000" stroke="none" d=" M190.999115,431.887207   C196.957947,442.656616 206.147583,442.979584 215.871567,441.360474   C220.391846,440.607788 223.428391,437.374817 223.730881,432.275146   C224.036331,427.125732 220.974533,424.624176 216.660065,423.341431   C208.219055,420.831818 199.302368,420.331757 190.974792,417.244751   C170.489059,409.650787 162.507370,387.675995 173.888931,369.196991   C180.605789,358.291534 191.188263,353.390961 203.566391,352.323181   C218.327972,351.049805 232.223846,352.947235 242.758286,364.986664   C245.085922,367.646820 246.775681,370.690796 248.174850,373.918060   C249.827362,377.729706 248.824448,380.368500 244.824982,381.753967   C240.737488,383.169952 236.604492,384.472412 232.583939,386.058990   C228.409775,387.706177 225.625229,386.953583 223.008942,382.921509   C218.765793,376.382172 212.243851,374.204620 205.231216,376.048248   C200.604996,377.264557 197.493561,379.944794 197.195541,384.971954   C196.894196,390.055084 200.090256,392.614471 204.464951,393.737823   C210.410736,395.264557 216.451340,396.421356 222.449432,397.745148   C238.122192,401.204193 249.180328,409.543610 251.795212,426.288727   C253.537933,437.448639 249.754578,446.956909 241.766617,454.741150   C227.252579,468.885010 187.886017,471.868835 170.997177,450.375092   C170.894333,450.244202 170.783096,450.119873 170.677505,449.991089   C162.575455,440.107300 163.093674,437.985321 174.717499,433.355988   C177.810181,432.124268 180.932632,430.954315 183.962860,429.582458   C186.901443,428.252045 189.105713,428.904297 190.999115,431.887207  z"/>
<path fill="#ffffff" opacity="1.000000" stroke="none" d=" M432.932922,359.445343   C433.244995,354.365936 436.574158,353.945221 440.088318,353.938507   C453.744812,353.912415 467.401428,353.937897 481.057983,353.938965   C491.883301,353.939850 502.710541,354.050568 513.533020,353.873108   C517.979797,353.800201 520.044983,355.641479 520.047852,359.995880   C520.050903,364.658600 520.044861,369.321442 520.072571,373.984039   C520.098938,378.430725 517.828552,380.213440 513.495300,380.090912   C508.336578,379.945007 503.170288,380.019409 498.007874,380.065399   C491.099701,380.126923 490.993988,380.270264 491.007629,387.025879   C491.053680,409.841888 491.108002,432.657928 491.124176,455.473938   C491.129974,463.657867 490.427338,464.323242 482.313110,464.339447   C478.149567,464.347748 473.985840,464.354095 469.822388,464.329956   C463.523254,464.293427 462.922943,463.757111 462.906250,457.535980   C462.855286,438.550140 462.861938,419.564117 462.840332,400.578186   C462.834259,395.248840 462.681366,389.915802 462.837982,384.591553   C462.934143,381.321716 461.588654,380.146240 458.421417,380.186493   C452.261444,380.264923 446.097656,380.178284 439.937378,380.059509   C434.189331,379.948700 432.973907,378.683594 432.907379,372.888031   C432.857727,368.558502 432.907410,364.227844 432.932922,359.445343  z"/>
<path fill="#ffffff" opacity="1.000000" stroke="none" d=" M357.349060,323.993896   C357.249512,338.454926 358.955658,337.283844 344.427368,337.289429   C326.603058,337.296265 308.778748,337.309723 290.954498,337.277374   C283.625610,337.264069 282.662140,336.258484 282.660431,328.850006   C282.652710,295.700165 282.653076,262.550293 282.668518,229.400436   C282.671509,222.942184 282.898834,222.737747 289.479767,222.687073   C294.643555,222.647308 299.833191,222.969925 304.964539,222.554092   C310.130707,222.135468 311.882935,224.467957 311.852234,229.166702   C311.805511,236.328506 312.157959,243.505646 311.808899,250.650269   C310.913849,268.968079 311.675812,287.290771 311.290833,305.604797   C311.207062,309.589661 312.693909,310.801697 316.543365,310.761322   C327.199799,310.649506 337.847046,310.492615 348.498627,310.031097   C356.934326,309.665588 357.339294,310.301208 357.348053,318.503387   C357.349823,320.169250 357.348633,321.835144 357.349060,323.993896  z"/>
<path fill="#ffffff" opacity="1.000000" stroke="none" d=" M372.974548,409.000000   C372.963959,392.847015 372.939301,377.194000 372.948242,361.541016   C372.952087,354.851746 373.785919,354.005951 380.350189,353.944000   C385.012421,353.899994 389.675568,353.895264 394.337860,353.929596   C400.506561,353.975006 401.277893,354.677826 401.289551,360.831085   C401.334595,384.643585 401.460388,408.457672 401.212524,432.267578   C401.160553,437.256500 402.391205,438.963501 407.573181,438.787415   C418.717041,438.408722 429.885864,438.830658 441.038605,438.617035   C445.666962,438.528412 447.337585,440.399048 447.136017,444.831207   C446.939514,449.151855 447.186951,453.491089 447.065033,457.817200   C446.916626,463.084076 445.543884,464.320404 439.933929,464.328308   C420.117889,464.356232 400.301819,464.350067 380.485748,464.334625   C373.656677,464.329315 372.919281,463.584930 372.914825,456.459229   C372.905090,440.806152 372.950958,425.153076 372.974548,409.000000  z"/>
<path fill="#ffffff" opacity="1.000000" stroke="none" d=" M372.902954,303.000000   C372.912537,278.871246 372.907654,255.242493 372.939392,231.613770   C372.950592,223.278961 373.519135,222.773041 381.623138,222.659470   C385.944977,222.598923 390.264954,222.394989 394.585327,222.243301   C400.667908,222.029724 403.056671,224.013321 403.067383,229.923477   C403.128174,263.536041 403.071045,297.148834 403.118744,330.761475   C403.125244,335.324005 401.304626,337.505676 396.549377,337.344025   C390.732056,337.146332 384.898376,337.148956 379.080505,337.336639   C374.462463,337.485626 372.855713,335.216614 372.885529,330.955902   C372.949615,321.804352 372.903717,312.652008 372.902954,303.000000  z"/>
<path fill="#ffffff" opacity="1.000000" stroke="none" d=" M752.956360,337.041443   C750.790283,334.941833 748.820251,333.147003 746.975159,331.231873   C740.853088,324.877289 740.715881,316.249054 746.640808,309.802551   C748.327515,307.967377 750.054688,306.140198 751.954529,304.535736   C757.288635,300.030975 765.276001,300.054871 770.196777,304.681244   C780.009888,313.907318 789.773193,323.187775 799.457214,332.549164   C805.055969,337.961395 805.741272,344.014832 801.454468,350.465759   C799.817139,352.929688 797.730713,355.160767 795.564819,357.195465   C788.985229,363.376678 781.316223,363.602478 774.585022,357.531738   C767.300354,350.961823 760.321777,344.052460 752.956360,337.041443  z"/>
<path fill="#ffffff" opacity="1.000000" stroke="none" d=" M785.702026,440.034119   C779.559326,442.176361 775.396240,440.647949 774.002136,436.086060   C772.709900,431.857697 775.106018,427.673828 779.527405,426.524292   C783.238708,425.559387 786.117249,427.026031 787.989319,430.099457   C790.227844,433.774414 789.166443,437.068604 785.702026,440.034119  z"/>
</svg>