<svg xmlns="http://www.w3.org/2000/svg" xmlns:xlink="http://www.w3.org/1999/xlink" version="1.1" id="Layer_1" x="0px" y="0px" width="100%" viewBox="0 0 1024 1024" enable-background="new 0 0 1024 1024" xml:space="preserve">
<path fill="#ffffff" opacity="1.000000" stroke="none" d=" M525.021118,580.750610   C544.432495,576.553955 563.429688,572.427368 582.419739,568.268433   C591.952209,566.180847 596.974915,569.755188 598.380066,579.425171   C600.360535,593.054443 602.536011,606.655396 604.557068,620.278931   C605.543213,626.925781 602.675293,631.233521 596.241333,632.648926   C545.130798,643.892883 494.012695,655.102173 442.893066,666.304443   C419.695923,671.387878 396.489624,676.429504 373.293030,681.515503   C373.058441,681.566956 372.899597,681.963806 372.367584,682.609192   C433.140350,682.609192 493.574341,682.606323 554.008362,682.611206   C568.993042,682.612366 583.977844,682.669006 598.962402,682.631409   C602.682190,682.622070 605.510803,683.471313 606.172668,687.766357   C606.820618,691.971497 605.661499,694.606262 601.261047,696.092773   C587.380005,700.782043 577.605652,710.011963 574.232178,724.407166   C571.521118,735.975586 572.738831,747.312805 581.730164,756.466187   C588.609863,763.469849 595.477112,770.486755 602.433411,777.413879   C608.057251,783.014160 608.321533,792.586975 602.625549,798.245361   C597.311401,803.524292 591.744751,808.548889 586.306396,813.703491   C585.719421,814.259949 585.246887,814.937134 584.468018,815.857483   C588.552490,818.550110 591.597290,821.761169 589.882996,826.983093   C588.908936,829.950195 586.583252,831.694031 583.614502,832.074890   C578.960205,832.672058 576.250183,829.791016 574.164368,825.727661   C569.928833,828.045349 566.915955,831.614563 563.519104,834.682434   C557.456726,840.157532 551.601929,845.865784 543.153076,847.631775   C540.999634,848.081848 538.880798,848.225037 536.717529,848.224731   C469.401794,848.216248 402.086029,848.212463 334.770294,848.196350   C317.878387,848.192322 309.791107,840.000366 309.790436,822.944519   C309.788940,784.621216 309.770813,746.297974 309.822601,707.974731   C309.827423,704.405823 309.165070,701.298157 307.351562,698.057495   C302.117401,688.704468 302.332703,679.247437 308.584961,670.327087   C310.255188,667.944092 310.795563,665.874512 310.027954,662.953979   C308.130371,655.734558 306.646149,648.404785 305.069366,641.103455   C303.425903,633.493469 306.745361,628.409058 314.346985,626.749329   C376.487122,613.182129 438.627777,599.617310 500.767426,586.047913   C508.715424,584.312317 516.658569,582.554688 525.021118,580.750610  M546.219910,591.031494   C544.749634,591.295471 543.289001,591.691284 541.807312,591.800537   C535.585388,592.259338 532.305481,595.763000 530.100464,601.468750   C526.747620,610.144958 522.597351,618.511108 518.873474,627.047241   C517.991943,629.067932 516.607849,631.084473 517.347717,633.532104   C518.132568,633.637695 518.644226,633.840820 519.094238,633.747437   C531.113220,631.254395 543.135193,628.773560 555.132324,626.178284   C557.679260,625.627319 558.669922,623.339050 559.636597,621.181274   C562.764832,614.198730 565.944092,607.238586 569.020508,600.233337   C571.179382,595.317322 573.849976,590.587524 575.301208,584.553772   C565.437134,586.722107 556.227783,588.746460 546.219910,591.031494  M432.567139,635.960938   C430.161438,641.766479 427.755768,647.572083 425.100861,653.979004   C434.910522,652.828247 443.587616,649.735901 452.573730,648.614075   C461.729095,647.471130 467.387390,643.487427 470.422424,634.345703   C473.691925,624.497681 478.540649,615.174072 483.165955,604.552612   C469.523926,607.657959 457.080017,610.518005 444.619293,613.302795   C442.296509,613.821838 441.483795,615.563293 440.676697,617.416382   C438.084167,623.368896 435.493744,629.322327 432.567139,635.960938  M363.380890,631.178223   C360.945465,631.676025 358.445221,631.973022 356.094025,632.731873   C354.009277,633.404724 351.294586,632.850952 350.107330,635.592346   C346.632599,643.615723 343.192688,651.647339 340.726227,660.095764   C343.079681,661.447632 345.753418,662.122925 346.968964,663.834106   C351.658691,670.435974 357.631592,669.602295 364.061035,667.639099   C365.956268,667.060364 367.921295,666.644775 369.884521,666.368958   C373.190796,665.904419 375.025787,664.113159 376.272888,660.993774   C380.093811,651.436157 384.221039,642.001282 388.175476,632.496460   C389.033417,630.434265 390.376709,628.461365 389.995178,625.268311   C381.210693,627.211182 372.703827,629.092712 363.380890,631.178223  M340.244080,679.350037   C336.750305,675.372375 332.514740,673.679443 327.383301,675.608765   C323.373688,677.116394 320.841888,680.069458 320.367554,684.430786   C319.829498,689.377747 322.569611,694.013977 327.245819,695.967896   C331.577972,697.778137 335.723785,697.360229 339.210510,694.006042   C343.178101,690.189331 343.546875,685.966980 340.244080,679.350037  M576.077759,794.544312   C579.083862,790.604980 579.386597,786.548584 576.078125,782.730530   C573.591187,779.860535 570.434509,778.046997 566.390442,779.123352   C561.986328,780.295532 559.013000,782.931946 558.418762,787.643127   C557.841064,792.222534 560.228027,795.266235 563.957703,797.416565   C568.469910,800.018005 572.247803,798.528687 576.077759,794.544312  M530.334656,813.919678   C530.393799,821.460571 535.838745,826.663818 541.951111,825.020386   C547.311035,823.579407 550.035522,819.915894 549.794250,814.474304   C549.600281,810.097717 546.005310,806.380920 541.191284,805.579407   C536.696960,804.831055 532.581482,807.719788 530.334656,813.919678  z"/>
<path fill="#ffffff" opacity="1.000000" stroke="none" d=" M483.115356,406.092651   C497.542206,446.219025 511.857452,485.970642 526.122559,525.740234   C529.323547,534.664001 532.407410,543.631104 535.433960,552.615723   C537.226868,557.938171 535.605347,560.017639 529.852356,559.944275   C518.549744,559.800232 507.247559,559.455322 495.945862,559.481689   C491.257874,559.492615 488.998901,557.248047 487.747070,553.079346   C485.785675,546.547852 483.469513,540.120300 481.611145,533.561584   C480.570038,529.887085 478.424316,528.231567 474.769592,528.456360   C457.778229,529.500793 440.800171,527.878601 423.809845,528.213257   C420.479431,528.278931 419.101257,529.831177 418.221710,532.708069   C416.081604,539.708069 413.641907,546.618469 411.596802,553.644714   C410.374146,557.845398 407.942017,559.661987 403.591705,559.419495   C391.986267,558.772766 380.384918,560.742432 368.759216,559.449402   C363.670624,558.883423 362.549225,557.445251 364.348267,552.208374   C368.565277,539.932861 372.891876,527.695068 377.165497,515.438965   C391.463318,474.435120 405.745789,433.425934 420.063721,392.429077   C422.568359,385.257416 424.954803,383.632080 432.616547,383.618164   C443.781403,383.597870 454.951080,383.804352 466.109314,383.531403   C472.025665,383.386658 475.497437,385.930695 477.439606,391.279083   C479.199829,396.126282 481.130280,400.911713 483.115356,406.092651  M450.016022,441.877716   C446.947845,441.243530 447.001007,443.933990 446.378510,445.553162   C441.726349,457.654297 437.826813,470.011627 434.087952,482.420502   C433.566406,484.151428 432.803070,485.851166 434.014740,488.662994   C443.560486,488.662994 453.490112,488.780365 463.413940,488.592468   C466.450775,488.535004 466.042511,485.806793 465.451019,484.011841   C460.829102,469.985748 456.532227,455.838440 450.016022,441.877716  z"/>
<path fill="#ffffff" opacity="1.000000" stroke="none" d=" M746.667053,289.792725   C735.124146,296.551788 722.701477,298.674164 710.004395,299.270905   C700.858948,299.700714 691.675293,299.511566 682.514221,299.326111   C678.624268,299.247375 677.231201,300.591858 677.277771,304.529205   C677.447388,318.858154 677.348083,333.190277 677.347656,347.521210   C677.347473,354.940002 675.943298,356.377991 668.717896,356.372345   C659.552795,356.365173 650.387695,356.366272 641.222595,356.347443   C633.713074,356.332031 632.679871,355.272797 632.656738,347.586517   C632.642273,342.754028 632.596497,337.920624 632.665649,333.089081   C633.356873,284.774109 631.097900,236.480377 631.634766,188.166367   C631.723999,180.133789 633.324585,178.863647 641.393311,178.894165   C665.382080,178.984924 689.383240,178.325531 713.357605,178.889145   C730.056396,179.281723 746.002563,182.779739 758.387695,195.743179   C767.219116,204.986862 771.768433,216.139526 773.008728,228.376389   C774.852783,246.570938 772.192383,263.988983 759.844299,278.640594   C756.173767,282.995880 751.881653,286.667206 746.667053,289.792725  M725.785278,231.889481   C723.640747,224.830307 718.413391,221.293320 711.532654,220.431320   C701.467102,219.170380 691.310364,220.198990 681.196716,219.939896   C678.506958,219.870987 677.295776,221.162018 677.308838,223.887177   C677.363037,235.190460 677.351807,246.494110 677.339478,257.797607   C677.336914,260.147949 678.140320,261.664246 680.772705,261.609406   C691.534729,261.385071 702.357849,262.581177 712.992249,259.681915   C718.179504,258.267700 721.792847,255.312622 724.188599,250.591385   C727.111084,244.832214 727.339966,238.836243 725.785278,231.889481  z"/>
<path fill="#ffffff" opacity="1.000000" stroke="none" d=" M225.749542,434.101501   C226.715256,409.408661 239.850266,391.203033 265.485138,383.406860   C284.630554,377.584290 303.621857,378.692047 322.142548,385.890015   C336.466309,391.456909 345.736328,402.291046 351.338318,416.378204   C353.367798,421.481750 352.293121,424.056274 347.331665,426.456451   C339.359985,430.312805 330.831696,432.606689 322.440704,435.320343   C316.817719,437.138794 313.636322,435.053497 311.116913,430.309204   C306.250854,421.145966 298.393280,417.092407 288.155884,417.348083   C284.232910,417.446045 280.606293,418.587708 277.278259,420.611420   C268.489899,425.955658 267.981384,437.480377 276.219238,443.634216   C281.580811,447.639404 287.935638,449.092377 294.246765,450.596375   C303.617157,452.829468 313.158356,454.359894 322.326599,457.420746   C345.368439,465.113342 355.529663,481.400391 357.271484,500.872681   C359.945221,530.763489 341.960297,549.087402 324.750092,555.578430   C297.699341,565.780823 270.720551,565.805725 244.527481,552.435547   C232.234344,546.160583 224.544464,535.653381 219.382874,523.098145   C217.996475,519.725830 218.729980,517.250244 222.053314,515.681335   C231.400116,511.268921 241.017349,507.545197 250.964523,504.735138   C255.097809,503.567444 258.180817,504.752686 260.564728,508.760773   C269.810791,524.306335 287.963745,528.141846 301.807281,522.413513   C308.790741,519.523804 312.823547,513.599915 312.744995,506.633148   C312.659912,499.087036 307.433746,495.846375 301.454071,493.667938   C291.747864,490.131897 281.425293,488.936279 271.459900,486.354736   C263.865845,484.387482 256.481720,481.875641 249.743683,477.726013   C233.668228,467.825989 225.528778,453.528931 225.749542,434.101501  z"/>
<path fill="#ffffff" opacity="1.000000" stroke="none" d=" M285.937317,180.697250   C315.629395,173.205566 343.404236,175.314590 368.348145,194.102524   C375.380463,199.399323 380.414917,206.448883 384.275848,214.338806   C386.258850,218.391205 385.863770,221.526871 381.469391,223.869324   C373.539185,228.096603 365.751007,232.590530 357.909210,236.983307   C353.479370,239.464798 350.144928,238.310532 347.180847,234.300537   C338.946686,223.161041 327.562195,216.898636 313.955750,216.767303   C298.319580,216.616379 284.916321,221.830719 277.413483,239.520828   C269.558685,258.040833 270.178802,277.429565 278.102692,295.866394   C286.130768,314.545593 306.346039,322.420532 326.792480,316.075806   C335.314606,313.431335 342.476837,308.778656 347.704407,301.477020   C350.019348,298.243561 352.862091,297.426300 356.395874,298.806641   C365.558411,302.385590 374.367340,306.753601 383.008453,311.412415   C387.488281,313.827759 385.805481,317.734070 383.977631,320.967010   C376.434296,334.308929 365.633820,344.437958 351.509766,350.180511   C320.377167,362.838379 289.779419,361.882416 260.696533,344.022034   C246.007217,335.000977 236.148392,321.766083 230.410660,305.509888   C223.015640,284.558258 222.214172,263.135620 227.333862,241.717300   C234.284500,212.639145 252.544983,193.227722 280.380585,182.664780   C282.091553,182.015503 283.822510,181.419006 285.937317,180.697250  z"/>
<path fill="#ffffff" opacity="1.000000" stroke="none" d=" M775.036133,673.370483   C773.336365,681.400085 769.147095,686.960388 762.379944,690.922302   C733.047119,708.095459 704.955139,727.207336 676.716431,746.086853   C670.834900,750.019104 669.556152,749.993408 664.174561,745.087219   C650.872742,732.960388 638.502991,719.894409 625.996765,706.966614   C622.361755,703.209045 623.163208,699.456299 625.882019,695.738892   C636.889526,680.687927 647.942505,665.670288 658.977234,650.639282   C668.436890,637.753784 678.439453,625.224792 687.205994,611.883728   C696.758057,597.347229 714.122314,596.098694 726.392578,606.176025   C743.005188,619.819824 757.773682,634.940186 769.837341,652.732483   C774.019348,658.900330 776.294434,665.445129 775.036133,673.370483  z"/>
<path fill="#ffffff" opacity="1.000000" stroke="none" d=" M674.999390,382.841125   C710.485474,382.784119 745.471619,382.726013 780.457764,382.685760   C789.421875,382.675446 791.276245,384.455261 791.172302,393.601166   C791.079773,401.749756 791.674194,409.902588 790.810181,418.052979   C790.304565,422.822174 788.017944,424.519775 783.236938,424.405975   C772.079224,424.140503 760.910828,424.314270 749.746765,424.324463   C743.061157,424.330597 743.009827,424.372650 743.026489,430.949585   C743.127686,470.937500 743.245605,510.925385 743.341736,550.913330   C743.360291,558.616699 741.720093,560.247192 734.004028,560.283264   C725.342468,560.323730 716.680542,560.368103 708.019165,560.333435   C701.539124,560.307495 699.895386,558.603882 699.660278,551.970520   C699.141602,537.334534 698.735352,522.700562 698.815491,508.048584   C698.954834,482.555328 698.862976,457.060730 698.858154,431.566711   C698.856750,424.322571 698.840942,424.321594 691.367493,424.321136   C680.203430,424.320496 669.039124,424.357269 657.875305,424.308014   C651.271790,424.278870 650.669495,423.651276 650.654053,417.245728   C650.632263,408.247833 650.628296,399.249817 650.657959,390.251984   C650.677002,384.449829 651.990906,382.963715 658.015076,382.757568   C663.502441,382.569794 669.004028,382.800415 674.999390,382.841125  z"/>
<path fill="#ffffff" opacity="1.000000" stroke="none" d=" M408.648804,243.999878   C408.269318,224.355637 409.459595,205.192581 407.811066,186.059128   C407.342407,180.619888 409.299622,178.944138 414.808502,178.920700   C424.136475,178.881027 433.465057,178.818146 442.791565,178.659256   C451.933350,178.503479 453.345734,179.720276 453.369995,188.745575   C453.419678,207.241272 453.667603,225.742706 453.308990,244.231598   C452.891968,265.729553 454.704620,287.176453 454.301056,308.660278   C454.233734,312.244293 455.404968,313.917725 459.162933,313.735809   C474.810547,312.978333 490.409851,315.135406 506.054321,314.604950   C510.529633,314.453247 514.993530,313.839935 519.466858,313.786133   C525.112183,313.718262 526.321289,314.979950 526.372009,320.427582   C526.465088,330.424377 526.432068,340.422424 526.547729,350.418854   C526.596375,354.619995 524.740479,356.412018 520.502625,356.405792   C485.176910,356.353912 449.850830,356.337433 414.525452,356.467499   C409.297394,356.486755 408.599854,353.728180 408.609131,349.478088   C408.685455,314.485474 408.650360,279.492645 408.648804,243.999878  z"/>
<path fill="#ffffff" opacity="1.000000" stroke="none" d=" M553.649597,511.999939   C553.649902,478.167999 553.702576,444.835907 553.607849,411.504272   C553.588501,404.698944 552.859009,397.897888 552.743958,391.089996   C552.638428,384.846802 553.893188,383.662994 559.903748,383.635468   C570.236450,383.588135 580.569580,383.587067 590.902283,383.631317   C596.844238,383.656799 597.346375,384.193848 597.350342,390.357269   C597.368042,418.022736 597.364441,445.688232 597.357910,473.353699   C597.354858,486.343353 599.039551,499.297668 598.275635,512.294800   C598.027161,516.523560 599.755920,517.801697 603.798035,517.768738   C623.462524,517.608032 643.128662,517.639465 662.794189,517.618469   C671.436279,517.609253 672.295349,518.303711 672.191956,527.016846   C672.095032,535.184937 673.074280,543.284912 673.262695,551.423584   C673.418518,558.153564 671.023438,560.429749 664.199646,560.213989   C645.260254,559.615295 626.297668,560.832397 607.367737,559.443359   C605.189270,559.283447 603.087769,559.339661 601.310425,557.708618   C595.377808,552.264465 588.289856,552.377991 581.082947,553.906860   C574.096130,555.389038 567.186951,557.234009 560.230713,558.864441   C554.957886,560.100220 553.687439,559.092041 553.668396,553.498413   C553.621887,539.832397 553.651123,526.166138 553.649597,511.999939  z"/>
<path fill="#ffffff" opacity="1.000000" stroke="none" d=" M554.558594,335.644287   C554.588623,292.881195 554.773376,250.588089 554.471069,208.298477   C554.419189,201.030823 553.612549,193.716690 553.669678,186.405869   C553.712585,180.911835 555.656738,178.746429 561.152588,178.710770   C571.966370,178.640594 582.775269,179.463043 593.600159,178.851013   C596.194031,178.704361 597.924622,180.089233 598.417664,182.903519   C598.848328,185.361572 599.287048,187.780212 599.285645,190.302551   C599.256714,242.751251 599.271912,295.199982 599.268860,347.648682   C599.268372,355.102051 597.915833,356.434052 590.638733,356.410461   C580.981873,356.379181 571.324829,356.397766 561.668030,356.355133   C555.896545,356.329651 554.166809,354.888977 553.963867,349.075897   C553.813477,344.767822 554.329468,340.436462 554.558594,335.644287  z"/>
<path fill="#ffffff" opacity="1.000000" stroke="none" d=" M608.060425,764.935547   C602.784546,759.597473 597.811157,754.456665 592.714905,749.440613   C586.297974,743.124634 584.690308,735.710205 586.777588,727.069702   C589.463989,715.949280 602.366455,706.897156 613.491760,708.730103   C616.735046,709.264526 619.205750,711.182800 621.495056,713.478638   C633.947632,725.966858 645.921631,738.904175 657.740662,751.986206   C663.247070,758.080994 664.570435,765.567749 660.336365,772.613220   C656.110046,779.645874 650.388184,785.399109 641.939331,787.634460   C634.900024,789.496887 629.201782,787.422607 624.369324,782.284119   C619.012756,776.588318 613.661804,770.887146 608.060425,764.935547  z"/>
<path fill="#ffffff" opacity="1.000000" stroke="none" d=" M611.439697,864.848267   C606.545166,859.575439 606.210754,853.843872 610.252136,850.140869   C614.106140,846.609558 620.254700,846.712891 623.699219,850.366943   C626.851318,853.710815 627.084106,858.703125 624.274902,862.713318   C621.651917,866.457642 617.428162,867.254944 611.439697,864.848267  z"/>
<path fill="#ffffff" opacity="1.000000" stroke="none" d=" M580.690796,845.014954   C585.687988,848.804138 587.004944,853.680847 584.527832,858.098206   C582.083191,862.457642 577.251160,863.968262 572.527222,861.850159   C568.525574,860.055847 566.339478,855.074646 567.566040,850.545654   C568.937561,845.481506 574.374512,843.053589 580.690796,845.014954  z"/>
<path fill="#ffffff" opacity="1.000000" stroke="none" d=" M602.968323,833.071228   C598.324341,834.125793 594.906433,833.180115 593.838379,828.481750   C593.112793,825.290039 594.177979,822.472595 597.457886,821.220581   C600.490356,820.063049 603.575134,820.397156 605.245483,823.465149   C607.129639,826.925842 607.252930,830.442078 602.968323,833.071228  z"/>
</svg>